<svg xmlns="http://www.w3.org/2000/svg" width="800" height="600" viewBox="0 0 800 600"><defs><radialGradient id="rayGradient" cx="50%" cy="50%" r="50%" fx="50%" fy="50%"><stop offset="0%" stop-color="#10b981" stop-opacity=".3"/><stop offset="60%" stop-color="#059669" stop-opacity=".1"/><stop offset="100%" stop-color="#047857" stop-opacity="0"/></radialGradient><filter id="glow" width="200%" height="200%" x="-50%" y="-50%"><feGaussianBlur result="blur" stdDeviation="10"/><feComposite in="SourceGraphic" in2="blur" operator="over"/></filter></defs><circle cx="400" cy="300" r="80" fill="url(#rayGradient)" filter="url(#glow)"/><g stroke-linecap="round" stroke-width="1.5" filter="url(#glow)"><line x1="400" x2="400" y1="300" y2="50" stroke="#10b981" stroke-opacity=".5"/><line x1="400" x2="350" y1="300" y2="80" stroke="#10b981" stroke-opacity=".4"/><line x1="400" x2="450" y1="300" y2="80" stroke="#10b981" stroke-opacity=".4"/><line x1="400" x2="300" y1="300" y2="120" stroke="#10b981" stroke-opacity=".3"/><line x1="400" x2="500" y1="300" y2="120" stroke="#10b981" stroke-opacity=".3"/><line x1="400" x2="250" y1="300" y2="150" stroke="#10b981" stroke-opacity=".2"/><line x1="400" x2="550" y1="300" y2="150" stroke="#10b981" stroke-opacity=".2"/><line x1="400" x2="400" y1="300" y2="550" stroke="#10b981" stroke-opacity=".5"/><line x1="400" x2="350" y1="300" y2="520" stroke="#10b981" stroke-opacity=".4"/><line x1="400" x2="450" y1="300" y2="520" stroke="#10b981" stroke-opacity=".4"/><line x1="400" x2="300" y1="300" y2="480" stroke="#10b981" stroke-opacity=".3"/><line x1="400" x2="500" y1="300" y2="480" stroke="#10b981" stroke-opacity=".3"/><line x1="400" x2="250" y1="300" y2="450" stroke="#10b981" stroke-opacity=".2"/><line x1="400" x2="550" y1="300" y2="450" stroke="#10b981" stroke-opacity=".2"/><line x1="400" x2="150" y1="300" y2="300" stroke="#10b981" stroke-opacity=".5"/><line x1="400" x2="180" y1="300" y2="350" stroke="#10b981" stroke-opacity=".4"/><line x1="400" x2="180" y1="300" y2="250" stroke="#10b981" stroke-opacity=".4"/><line x1="400" x2="220" y1="300" y2="400" stroke="#10b981" stroke-opacity=".3"/><line x1="400" x2="220" y1="300" y2="200" stroke="#10b981" stroke-opacity=".3"/><line x1="400" x2="250" y1="300" y2="450" stroke="#10b981" stroke-opacity=".2"/><line x1="400" x2="250" y1="300" y2="150" stroke="#10b981" stroke-opacity=".2"/><line x1="400" x2="650" y1="300" y2="300" stroke="#10b981" stroke-opacity=".5"/><line x1="400" x2="620" y1="300" y2="350" stroke="#10b981" stroke-opacity=".4"/><line x1="400" x2="620" y1="300" y2="250" stroke="#10b981" stroke-opacity=".4"/><line x1="400" x2="580" y1="300" y2="400" stroke="#10b981" stroke-opacity=".3"/><line x1="400" x2="580" y1="300" y2="200" stroke="#10b981" stroke-opacity=".3"/><line x1="400" x2="550" y1="300" y2="450" stroke="#10b981" stroke-opacity=".2"/><line x1="400" x2="550" y1="300" y2="150" stroke="#10b981" stroke-opacity=".2"/><line x1="400" x2="600" y1="300" y2="100" stroke="#10b981" stroke-opacity=".4"/><line x1="400" x2="600" y1="300" y2="500" stroke="#10b981" stroke-opacity=".4"/><line x1="400" x2="200" y1="300" y2="100" stroke="#10b981" stroke-opacity=".4"/><line x1="400" x2="200" y1="300" y2="500" stroke="#10b981" stroke-opacity=".4"/></g><g fill="#10b981"><circle cx="400" cy="150" r="2" opacity=".7"/><circle cx="350" cy="200" r="1.5" opacity=".6"/><circle cx="450" cy="200" r="1.5" opacity=".6"/><circle cx="300" cy="250" r="1" opacity=".5"/><circle cx="500" cy="250" r="1" opacity=".5"/><circle cx="400" cy="450" r="2" opacity=".7"/><circle cx="350" cy="400" r="1.5" opacity=".6"/><circle cx="450" cy="400" r="1.5" opacity=".6"/><circle cx="300" cy="350" r="1" opacity=".5"/><circle cx="500" cy="350" r="1" opacity=".5"/><circle cx="250" cy="300" r="2" opacity=".7"/><circle cx="550" cy="300" r="2" opacity=".7"/><circle cx="320" cy="220" r="1.2" opacity=".5"/><circle cx="480" cy="220" r="1.2" opacity=".5"/><circle cx="320" cy="380" r="1.2" opacity=".5"/><circle cx="480" cy="380" r="1.2" opacity=".5"/></g></svg>