<svg xmlns="http://www.w3.org/2000/svg" width="1000" height="1000" viewBox="0 0 1000 1000"><defs><linearGradient id="lineGradient1" x1="0%" x2="100%" y1="0%" y2="100%"><stop offset="0%" stop-color="#10b981" stop-opacity=".2"/><stop offset="100%" stop-color="#059669" stop-opacity=".1"/></linearGradient><linearGradient id="lineGradient2" x1="100%" x2="0%" y1="0%" y2="100%"><stop offset="0%" stop-color="#10b981" stop-opacity=".15"/><stop offset="100%" stop-color="#047857" stop-opacity=".1"/></linearGradient></defs><g fill="none" stroke-width="1.5"><path stroke="url(#lineGradient1)" d="M0,100 H1000"/><path stroke="url(#lineGradient2)" d="M0,300 H1000"/><path stroke="url(#lineGradient1)" d="M0,500 H1000"/><path stroke="url(#lineGradient2)" d="M0,700 H1000"/><path stroke="url(#lineGradient1)" d="M0,900 H1000"/><path stroke="url(#lineGradient2)" d="M100,0 V1000"/><path stroke="url(#lineGradient1)" d="M300,0 V1000"/><path stroke="url(#lineGradient2)" d="M500,0 V1000"/><path stroke="url(#lineGradient1)" d="M700,0 V1000"/><path stroke="url(#lineGradient2)" d="M900,0 V1000"/><path stroke="url(#lineGradient1)" d="M100,100 L300,300"/><path stroke="url(#lineGradient2)" d="M300,300 L500,100"/><path stroke="url(#lineGradient1)" d="M500,100 L700,300"/><path stroke="url(#lineGradient2)" d="M700,300 L900,100"/><path stroke="url(#lineGradient2)" d="M100,300 L300,500"/><path stroke="url(#lineGradient1)" d="M300,500 L500,300"/><path stroke="url(#lineGradient2)" d="M500,300 L700,500"/><path stroke="url(#lineGradient1)" d="M700,500 L900,300"/><path stroke="url(#lineGradient1)" d="M100,500 L300,700"/><path stroke="url(#lineGradient2)" d="M300,700 L500,500"/><path stroke="url(#lineGradient1)" d="M500,500 L700,700"/><path stroke="url(#lineGradient2)" d="M700,700 L900,500"/><path stroke="url(#lineGradient2)" d="M100,700 L300,900"/><path stroke="url(#lineGradient1)" d="M300,900 L500,700"/><path stroke="url(#lineGradient2)" d="M500,700 L700,900"/><path stroke="url(#lineGradient1)" d="M700,900 L900,700"/><circle cx="100" cy="100" r="3" fill="#10b981" opacity=".5"/><circle cx="300" cy="300" r="3" fill="#10b981" opacity=".5"/><circle cx="500" cy="100" r="3" fill="#10b981" opacity=".5"/><circle cx="700" cy="300" r="3" fill="#10b981" opacity=".5"/><circle cx="900" cy="100" r="3" fill="#10b981" opacity=".5"/><circle cx="100" cy="300" r="3" fill="#10b981" opacity=".5"/><circle cx="300" cy="500" r="3" fill="#10b981" opacity=".5"/><circle cx="500" cy="300" r="3" fill="#10b981" opacity=".5"/><circle cx="700" cy="500" r="3" fill="#10b981" opacity=".5"/><circle cx="900" cy="300" r="3" fill="#10b981" opacity=".5"/><circle cx="100" cy="500" r="3" fill="#10b981" opacity=".5"/><circle cx="300" cy="700" r="3" fill="#10b981" opacity=".5"/><circle cx="500" cy="500" r="3" fill="#10b981" opacity=".5"/><circle cx="700" cy="700" r="3" fill="#10b981" opacity=".5"/><circle cx="900" cy="500" r="3" fill="#10b981" opacity=".5"/><circle cx="100" cy="700" r="3" fill="#10b981" opacity=".5"/><circle cx="300" cy="900" r="3" fill="#10b981" opacity=".5"/><circle cx="500" cy="700" r="3" fill="#10b981" opacity=".5"/><circle cx="700" cy="900" r="3" fill="#10b981" opacity=".5"/><circle cx="900" cy="700" r="3" fill="#10b981" opacity=".5"/></g></svg>