<svg xmlns="http://www.w3.org/2000/svg" width="24" height="24" version="1.1" viewBox="0 0 24 24"><path fill="#fff" d="M17.05,12.31c-.03-3.15,2.57-4.66,2.69-4.73a5.8,5.8,0,0,0-4.52-2.44c-1.92-.19-3.75,1.13-4.72,1.13s-2.47-1.1-4.07-1.07a6.07,6.07,0,0,0-5.13,3.11c-2.18,3.78-.56,9.38,1.57,12.45,1,1.49,2.26,3.17,3.87,3.11,1.55-.06,2.14-1,4.02-1s2.41,1,4.06.94c1.68-.03,2.74-1.52,3.77-3,1.19-1.74,1.68-3.42,1.71-3.51C20.3,17.3,17.08,16.07,17.05,12.31Z"/><path fill="#fff" d="M14.72,6.42a5.54,5.54,0,0,0,1.27-4,5.64,5.64,0,0,0-3.67,1.89,5.27,5.27,0,0,0-1.31,3.84A4.66,4.66,0,0,0,14.72,6.42Z"/></svg>